<svg xmlns="http://www.w3.org/2000/svg" width="314.324" height="100" viewBox="0 0 314.324 100"><defs><style>.a{fill:#1e2f62;}</style></defs><g transform="translate(214.324)"><g transform="translate(11.581 39.833)"><path class="a" d="M237.9-233.228h13.423l2.367-13.423H240.27Z" transform="translate(-237.903 246.652)"/><path class="a" d="M366.768-243.3h13.423l.592-3.356H367.36Z" transform="translate(-304.829 246.652)"/></g><path class="a" d="M274.364-181.915a1.05,1.05,0,0,0,.348-.831.981.981,0,0,0-.331-.778,1.5,1.5,0,0,0-1-.287h-.506v2.2h.429A1.577,1.577,0,0,0,274.364-181.915Z" transform="translate(-244.482 253.849)"/><path class="a" d="M351.649-184.256a3.206,3.206,0,0,0-2.4,1.009,3.542,3.542,0,0,0-.974,2.565,3.366,3.366,0,0,0,1.226,2.744,3.33,3.33,0,0,0,2.186.788,3.171,3.171,0,0,0,2.375-1.023,3.506,3.506,0,0,0,.981-2.522,3.52,3.52,0,0,0-.988-2.526A3.2,3.2,0,0,0,351.649-184.256Z" transform="translate(-283.642 254.08)"/><path class="a" d="M263.808-329.526a50,50,0,0,0-50,50,50,50,0,0,0,50,50,50,50,0,0,0,50-50A50,50,0,0,0,263.808-329.526Zm-40.092,59.969a5.423,5.423,0,0,1-4.43-1.939,5.712,5.712,0,0,1-1.1-4.772l2.367-13.424a7.846,7.846,0,0,1,2.772-4.72,7.747,7.747,0,0,1,5.122-1.992h13.424a5.284,5.284,0,0,1,4.368,1.992,5.564,5.564,0,0,1,1.161,4.72l-2.367,13.424A7.824,7.824,0,0,1,242.2-271.5a7.763,7.763,0,0,1-5.06,1.939Zm22.518,17.181a2.872,2.872,0,0,1-1.155,1.084,4.388,4.388,0,0,1-1.955.359h-2.886v-10.453h1.619a8.288,8.288,0,0,1,2.059.185,2.754,2.754,0,0,1,1.472.924,2.455,2.455,0,0,1,.546,1.592,2.343,2.343,0,0,1-.249,1.083,2.746,2.746,0,0,1-.807.914,3.23,3.23,0,0,1,1.371,1.119,2.865,2.865,0,0,1,.434,1.588A2.985,2.985,0,0,1,246.234-252.377Zm4.839,1.443h-1.945v-10.453h1.945Zm11.171,0h-1.885l-4.4-6.857v6.857H254v-10.453h1.88l4.4,6.878v-6.878h1.96Zm-4.9-38.759L253.8-269.557h-6.712l3.55-20.135a7.987,7.987,0,0,1,2.772-4.72,7.617,7.617,0,0,1,5.123-1.992h13.424a5.377,5.377,0,0,1,4.368,1.992,5.468,5.468,0,0,1,1.161,4.72l-3.551,20.135h-6.712l3.551-20.135Zm16.843,36.5a4.927,4.927,0,0,1-1.812,1.876,5.1,5.1,0,0,1-2.611.646,5.722,5.722,0,0,1-2.858-.707,5.133,5.133,0,0,1-1.987-2.014,5.681,5.681,0,0,1-.731-2.821,5.29,5.29,0,0,1,1.35-3.61,5.29,5.29,0,0,1,4.171-1.826,6.274,6.274,0,0,1,2.513.5,5.766,5.766,0,0,1,1.931,1.464l-1.38,1.386a4.053,4.053,0,0,0-3.054-1.407,3.46,3.46,0,0,0-2.546,1.023,3.379,3.379,0,0,0-1.026,2.487,3.465,3.465,0,0,0,1.065,2.565,3.591,3.591,0,0,0,2.627,1.052,3.183,3.183,0,0,0,1.713-.434,3.029,3.029,0,0,0,1.124-1.357H269.7v-1.869h5.179l.014.441A5.169,5.169,0,0,1,274.191-253.194Zm11.423.938a5.07,5.07,0,0,1-3.764,1.584A5.068,5.068,0,0,1,278-252.3a5.444,5.444,0,0,1-1.534-3.866,5.476,5.476,0,0,1,.715-2.757,5.327,5.327,0,0,1,1.963-1.993,5.221,5.221,0,0,1,2.693-.735,5.072,5.072,0,0,1,3.756,1.606,5.385,5.385,0,0,1,1.573,3.915A5.33,5.33,0,0,1,285.614-252.255Zm20.176-27.37H285.654l-.592,3.356H305.2l-1.183,6.711H283.88a5.423,5.423,0,0,1-4.431-1.939,5.712,5.712,0,0,1-1.1-4.772l2.367-13.424a7.846,7.846,0,0,1,2.772-4.72,7.747,7.747,0,0,1,5.123-1.992h13.423a5.283,5.283,0,0,1,4.368,1.992,5.563,5.563,0,0,1,1.161,4.72Z" transform="translate(-213.808 329.526)"/><path class="a" d="M273.278-175.534h-.407v2.679h.491a3,3,0,0,0,1.646-.312,1.06,1.06,0,0,0,.424-.91,1.281,1.281,0,0,0-.5-1.066A2.719,2.719,0,0,0,273.278-175.534Z" transform="translate(-244.482 249.55)"/></g><g transform="translate(0 25.261)"><g transform="translate(0 0)"><path class="a" d="M-97.564-241.073l-1.3,4.556c-.193.695-.342,1.323-.461,1.871a6.5,6.5,0,0,0-.174,1.232,1.51,1.51,0,0,0,.425,1.144,1.658,1.658,0,0,0,1.18.413,3.5,3.5,0,0,0,2.38-1.229,13.6,13.6,0,0,0,2.367-3.53,42.19,42.19,0,0,0,2.237-5.837,17.439,17.439,0,0,0,.851-4.49,3.2,3.2,0,0,0-.5-1.873,1.492,1.492,0,0,0-1.251-.715c-1.135,0-2.166.7-3.115,2.069a22.643,22.643,0,0,0-2.638,6.389m-8.174-10.583c2.022-.148,3.938-.354,5.775-.577s3.6-.487,5.3-.8l-1.435,4.883A17.544,17.544,0,0,1-92-252.28a6.943,6.943,0,0,1,4.021-1.3,5.652,5.652,0,0,1,4.414,1.715,7.052,7.052,0,0,1,1.557,4.909,16.589,16.589,0,0,1-1.064,5.642,21.859,21.859,0,0,1-2.984,5.508,16.531,16.531,0,0,1-4.714,4.444,10.293,10.293,0,0,1-5.332,1.49,7.1,7.1,0,0,1-2.178-.322,6.426,6.426,0,0,1-1.83-.958l-1.468,5.3a5.39,5.39,0,0,0-.218.989,5.816,5.816,0,0,0-.072.98,1.5,1.5,0,0,0,.591,1.356,5.633,5.633,0,0,0,2.409.485v1.235h-13.672V-222.1a1.326,1.326,0,0,0,.2-.02.854.854,0,0,1,.2-.03,2.587,2.587,0,0,0,1.907-.632,8.326,8.326,0,0,0,1.321-3.319l5.442-21.081c.094-.335.168-.681.226-1.006a4.954,4.954,0,0,0,.088-.747,1.263,1.263,0,0,0-.542-1.185,4.119,4.119,0,0,0-2.038-.342Z" transform="translate(170.005 264.825)"/><path class="a" d="M-50.833-275.43c2.044-.157,4-.367,5.9-.625s3.672-.555,5.352-.916L-47.1-248.7c-.049.154-.107.341-.171.589a3.28,3.28,0,0,0-.136.723,1.285,1.285,0,0,0,.2.781.718.718,0,0,0,.613.283,1.427,1.427,0,0,0,.929-.541,24.769,24.769,0,0,0,2.024-2.805l1.2.864a20.731,20.731,0,0,1-4.327,5.224,6.8,6.8,0,0,1-4.267,1.613,4.144,4.144,0,0,1-3.034-1.045,4.035,4.035,0,0,1-1.064-3.013,30.791,30.791,0,0,1,1.09-5.1l.071-.279,4.985-18.4c.042-.171.106-.422.187-.754a12.1,12.1,0,0,0,.458-2.324,1.128,1.128,0,0,0-.5-1.023,2.9,2.9,0,0,0-1.567-.335h-.429Z" transform="translate(140.187 276.971)"/><path class="a" d="M-15.7-248.648a2.559,2.559,0,0,0-.46-1.612,1.466,1.466,0,0,0-1.217-.6,2.914,2.914,0,0,0-2.069,1.006,16.519,16.519,0,0,0-2.3,3.373,31.76,31.76,0,0,0-2.4,5.5,15.367,15.367,0,0,0-.883,4.623,3.065,3.065,0,0,0,.486,1.826,1.589,1.589,0,0,0,1.316.647,3.5,3.5,0,0,0,2.479-1.393,14.789,14.789,0,0,0,2.415-3.911,42.946,42.946,0,0,0,1.916-5.442,16.625,16.625,0,0,0,.721-4.015m9.061-4.143-4.008,13.982v.048a25.885,25.885,0,0,0-.916,3.767,1.4,1.4,0,0,0,.2.806.593.593,0,0,0,.535.3c.645,0,1.493-.745,2.51-2.234.308-.423.544-.76.706-.994l1.162.871a17.215,17.215,0,0,1-3.939,4.824,6.872,6.872,0,0,1-4.3,1.542,4.529,4.529,0,0,1-2.9-.8,2.882,2.882,0,0,1-1.006-2.383,8.208,8.208,0,0,1,.1-1.184c.058-.477.161-1.1.3-1.851a14.519,14.519,0,0,1-3.953,4.681,7.909,7.909,0,0,1-4.754,1.539,5.69,5.69,0,0,1-4.272-1.605,6.1,6.1,0,0,1-1.57-4.429,17.406,17.406,0,0,1,1.511-6.816,21.329,21.329,0,0,1,4.048-6.308,16.315,16.315,0,0,1,4.169-3.371,8.764,8.764,0,0,1,4.175-1.18,4.667,4.667,0,0,1,3,.884A4.415,4.415,0,0,1-14.384-250l.734-2.8Z" transform="translate(128.563 264.825)"/><path class="a" d="M12.121-250.859v-1.29c1.952-.207,3.927-.465,5.942-.755,2-.287,3.086-.429,3.238-.429.8,0,1.857,3.362,3.131,10.1.52,2.682.94,4.843,1.275,6.463q2.28-4.4,3.119-6.4a8.743,8.743,0,0,0,.835-2.954c0-.488-.468-1.085-1.4-1.76a2.944,2.944,0,0,1-1.408-2.346,3.17,3.17,0,0,1,.979-2.437,3.62,3.62,0,0,1,2.586-.916,3.373,3.373,0,0,1,2.507.916,3.576,3.576,0,0,1,.9,2.576q0,2.071-2.076,6.659a91.5,91.5,0,0,1-5.669,10.329,45.354,45.354,0,0,1-7.4,9.571q-3.331,3.018-6.411,3.015a5.307,5.307,0,0,1-3.219-.868,2.826,2.826,0,0,1-1.17-2.393,2.9,2.9,0,0,1,1.016-2.276,3.709,3.709,0,0,1,2.564-.9,4.842,4.842,0,0,1,2.617.921,4.664,4.664,0,0,0,1.867.909c.559,0,1.191-.444,1.9-1.337a4.128,4.128,0,0,0,1.1-2.564,20.242,20.242,0,0,0-.166-2.276c-.112-.925-.288-2.052-.514-3.392-.471-2.873-.951-5.5-1.428-7.846s-.923-4.208-1.313-5.561a5.9,5.9,0,0,0-1.038-2.281,2.346,2.346,0,0,0-1.723-.529h-.063a4.155,4.155,0,0,1-.573.052" transform="translate(107.467 264.825)"/><path class="a" d="M69.335-244.844A22.535,22.535,0,0,1,64.9-240.2a6.694,6.694,0,0,1-3.925,1.621,2.965,2.965,0,0,1-2.258-.881,3.392,3.392,0,0,1-.832-2.393,7.372,7.372,0,0,1,.111-1.181,12.383,12.383,0,0,1,.318-1.448l4.306-16.016H58.083l.423-1.375a10.842,10.842,0,0,0,5.176-2.66,18.973,18.973,0,0,0,4.052-5.7h1.548l-2.024,8.038H71.4l-.419,1.694h-4.27l-4.136,15.47c-.092.352-.167.659-.216.948a6.83,6.83,0,0,0-.068.762,1.709,1.709,0,0,0,.363,1.179,1.2,1.2,0,0,0,.979.409,3.248,3.248,0,0,0,1.932-.926,22.632,22.632,0,0,0,2.844-3.019Z" transform="translate(81.496 273.468)"/><path class="a" d="M84.578-241.33a15.693,15.693,0,0,0,8.4-2.588c2.27-1.589,3.388-3.376,3.388-5.4a2,2,0,0,0-.541-1.53,2.3,2.3,0,0,0-1.622-.5,7.713,7.713,0,0,0-5.614,2.645,18.092,18.092,0,0,0-4.008,7.371m-.394,1.7a13.091,13.091,0,0,0-.323,1.657,9.118,9.118,0,0,0-.106,1.435,4.159,4.159,0,0,0,1.045,3.068,4.149,4.149,0,0,0,3.041,1.229,10.456,10.456,0,0,0,4.471-1.446,31.421,31.421,0,0,0,5.637-3.856l1.1,1.58a30.635,30.635,0,0,1-7.008,4.7,15.106,15.106,0,0,1-6.43,1.521A6.431,6.431,0,0,1,80.8-231.5a6.873,6.873,0,0,1-1.71-4.994,16.245,16.245,0,0,1,1.331-6.284,19.139,19.139,0,0,1,3.64-5.664,16.437,16.437,0,0,1,4.893-3.612,12.959,12.959,0,0,1,5.494-1.253,6.59,6.59,0,0,1,4.09,1.149,3.725,3.725,0,0,1,1.5,3.14c0,2.4-1.471,4.484-4.384,6.234a26.051,26.051,0,0,1-11.474,3.154" transform="translate(70.482 264.683)"/><path class="a" d="M136.532-239.269l-.066,3.03a17,17,0,0,1-5.124,4.9,11.828,11.828,0,0,1-6.063,1.615,7.818,7.818,0,0,1-5.862-2.308,8.266,8.266,0,0,1-2.246-6.06,13.924,13.924,0,0,1,1.271-5.656,16.988,16.988,0,0,1,3.522-5.17,14.853,14.853,0,0,1,4.632-3.19,12.758,12.758,0,0,1,5.214-1.136,7.415,7.415,0,0,1,4.469,1.225,3.844,3.844,0,0,1,1.664,3.262,2.828,2.828,0,0,1-.869,2.087,2.753,2.753,0,0,1-2.043.868,2.1,2.1,0,0,1-1.573-.607,2.123,2.123,0,0,1-.6-1.577,3.422,3.422,0,0,1,.485-1.588,3.567,3.567,0,0,0,.473-1.116.765.765,0,0,0-.489-.681,2.852,2.852,0,0,0-1.339-.262,7.007,7.007,0,0,0-3.523,1.029,10.664,10.664,0,0,0-3.136,2.847,17.752,17.752,0,0,0-2.527,4.643,14.183,14.183,0,0,0-.877,4.791,6.045,6.045,0,0,0,1.417,4.233,5.14,5.14,0,0,0,3.87,1.739,7.471,7.471,0,0,0,3.782-1.33,18.582,18.582,0,0,0,5.539-5.591" transform="translate(50.705 264.647)"/><path class="a" d="M151.572-241.574l8.482-29.228a3.6,3.6,0,0,0,.1-.553,2.91,2.91,0,0,0,.04-.515,1.281,1.281,0,0,0-.4-1.08,5.45,5.45,0,0,0-2.3-.28h-1.93l.3-1.329a30.831,30.831,0,0,0,4.365-.487,24.1,24.1,0,0,0,3.82-1.065h1.532l-5.87,20.186a55.219,55.219,0,0,1,8.3-6.794c2.515-1.6,4.521-2.408,6.021-2.408a2.451,2.451,0,0,1,1.739.535,2.289,2.289,0,0,1,.569,1.681,4.206,4.206,0,0,1-.111.85c-.069.345-.158.724-.266,1.133l-4.286,13.755a8.779,8.779,0,0,0-.2.879,5.3,5.3,0,0,0-.088.932.65.65,0,0,0,.242.475c.154.132.341.376.544.376a4.1,4.1,0,0,0,1.741-.986,14.561,14.561,0,0,0,2.333-2.221l.875.716a21.544,21.544,0,0,1-4.26,3.993,6.942,6.942,0,0,1-3.786,1.388,2.786,2.786,0,0,1-1.783-.524,1.72,1.72,0,0,1-.651-1.432,3.472,3.472,0,0,1,.069-.7,4.959,4.959,0,0,1,.233-.807l4.4-14.221c.08-.31.131-.551.161-.711a2.727,2.727,0,0,0,.036-.445,1.051,1.051,0,0,0-.326-.832,1.373,1.373,0,0,0-.922-.276,6.087,6.087,0,0,0-2.768,1.124,33.588,33.588,0,0,0-4.241,3.215,23.319,23.319,0,0,0-3.176,3.142,9.066,9.066,0,0,0-1.461,2.705l-2.919,9.807c-.332-.05-1.514-.086-1.854-.105s.157-.024-.2-.024-.716,0-1.061.024-.683.055-1.041.105" transform="translate(32.839 276.525)"/><path class="a" d="M-180.714-250.379c-.034-.081-.057-.159-.09-.245-2.139-4.981-10.258-6.494-19.62-4.213l-1.536-.911c4.608-1.892,9.2-2.883,13.042-2.608,5.737.413,8.545,3.519,8.2,7.977m-8.323,10.466c-6,7.268-16.847,12.3-24.228,11.775s-8.487-6.845-2.482-14.111c.117-.149.248-.3.373-.444l.018,9.108a2.7,2.7,0,0,0,3.993,2.487l22.069-12.8a2.517,2.517,0,0,0-.083-4.356l-8.946-4.9a20.093,20.093,0,0,1,6.8-.871c7.375.531,8.484,6.844,2.485,14.11M-217.1-224.226c-6.772-.484-9.472-4.731-7.711-10.511a6.586,6.586,0,0,0,.524,2.746c2.645,6.188,14.529,7.026,26.537,1.888.248-.1.492-.216.735-.323-6.742,4.136-14.251,6.611-20.085,6.2m7.8-32.352,14.811,8.878a1.725,1.725,0,0,1,.063,2.971l-14.964,8.678a1.839,1.839,0,0,1-2.716-1.7l-.071-17.231a1.915,1.915,0,0,1,2.876-1.592m34.289,3.2c-3.106-7.254-16-8.853-29.951-4.157l-6.19-3.691a2.826,2.826,0,0,0-4.236,2.35l0,5.994c-12.027,6.85-19,16.715-16.03,23.656,3.441,8.017,18.853,9.121,34.424,2.451s25.414-18.581,21.98-26.6" transform="translate(232.098 268.989)"/></g></g></svg>